<svg xmlns="http://www.w3.org/2000/svg" viewBox="0 0 775.45 297.83"><defs><style>.cls-1,.cls-2,.cls-4{fill:#fff;}.cls-2{font-size:190.01px;}.cls-2,.cls-4{font-family:Halo-Dek, Halo Dek;}.cls-3{letter-spacing:-0.02em;}.cls-4{font-size:94.75px;}.cls-5{letter-spacing:-0.02em;}.cls-6{letter-spacing:-0.01em;}</style></defs><g id="Layer_2" data-name="Layer 2"><g id="LOGO_MBUD" data-name="LOGO MBUD"><g id="LOGO_V1" data-name="LOGO V1"><g id="LOgo"><path class="cls-1" d="M215.86,50.77a92.91,92.91,0,0,0-108.2,78.89,111.12,111.12,0,0,0-16-8.37c-2.7-1.14-5.43-2.16-8.18-3.08l.06-.25A98.66,98.66,0,0,1,215.86,50.77Z"/><path class="cls-1" d="M268,79.74a93.44,93.44,0,0,0-10.47-10.11c-.6-.5-1.21-1-1.82-1.47-.13-.14-.27-.27-.4-.4a106,106,0,0,0-14.17-11.89A105.39,105.39,0,0,0,78.63,116.72a110.94,110.94,0,0,0-30.16-4.14h-.32A120.54,120.54,0,0,1,268,79.74Z"/><path class="cls-1" d="M227.5,186.92l-2.09,8a5.3,5.3,0,0,1-.92,1.91c-3.71-.1-7.4-.38-11.05-.83l-88-52.44a111.06,111.06,0,0,0-11.56-9.73,5.46,5.46,0,0,1,2.15-4.68l10.85-8.27a5.47,5.47,0,0,1,6.36-.23l92,60.24A5.52,5.52,0,0,1,227.5,186.92Z"/><path class="cls-1" d="M214.8,169.58l-61.07-39.7a3.42,3.42,0,0,1-.1-5.67l6.93-4.87a3.41,3.41,0,0,1,4,0L220.14,159a3.4,3.4,0,0,1,1.29,3.77l-1.49,4.94A3.42,3.42,0,0,1,214.8,169.58Z"/><path class="cls-1" d="M277.72,196a127.65,127.65,0,0,1-45,45.84A120.54,120.54,0,0,1,47.61,169.68c-1-1.72-2-3.41-3.1-5.06A82.61,82.61,0,0,0,0,131.37a103.49,103.49,0,0,1,41.2-11.69c1-.07,1.92-.12,2.89-.16s1.68-.07,2.53-.08h1.84a104.34,104.34,0,0,1,28.73,4s0,0,0,0a103.58,103.58,0,0,1,29.73,13.94,105.11,105.11,0,0,1,15.13,12.53c1.22,1.22,2.42,2.48,3.58,3.76q2.61,3.34,5.43,6.51a132,132,0,0,0,10.29,10.33,129.75,129.75,0,0,0,86.93,33.27h.21a24.26,24.26,0,0,0,24.14-25l-.06-1.55C250.94,142.38,231.19,125,213.8,125a23.45,23.45,0,0,0-3.25.22,25,25,0,0,1-2.91.18c-15.55,0-18.08-17.5,1.74-19.43,1.05-.1,2.1-.15,3.14-.15,16.33,0,30.25,12,35.4,12a1.86,1.86,0,0,0,2-1.63c3.4-14.14-10.77-25.61-23.56-25.61a19.33,19.33,0,0,0-5.16.67,48.64,48.64,0,0,1-12.87,1.94c-18.6,0-22.74-14.75-16.72-21.33,5.68-6.22,13.67-8.61,21.51-8.61a40.4,40.4,0,0,1,19.46,5c21.21,12.2,32.6,31.76,32.07,50.59-.41,14.47,4.3,24.9,12.11,24.9a9.61,9.61,0,0,0,1.89-.19c3.91-.79,9.88-8.2-2.19-22.82-7.58-9.17-9.1-9.2-9.92-12-1-3.47.37-5.34,3-5.35,3.59,0,9.48,3.49,14.65,11.18C295,130.6,293.23,171.68,277.72,196Z"/><path class="cls-1" d="M220.88,147.56s-13.94,1-10.88-9.65,20.63-7,29.43,7.79c5.21,8.75,10.35,24.45,1.77,24.43-5.12,0-6.71-8.6-6.71-8.6s-.8-2.41-2.77-.36-6.95.51-6.92-2.63c0-2.7,3.5-4.52,6.12-2.7S232,147.85,220.88,147.56Z"/></g><text class="cls-2" transform="translate(293.45 163.79)">M<tspan class="cls-3" x="137.95" y="0">B</tspan><tspan x="233.72" y="0">AK</tspan></text><text class="cls-4" transform="translate(293.26 242.55)"><tspan class="cls-5">B</tspan><tspan x="47.47" y="0">I</tspan><tspan class="cls-6" x="78.92" y="0">r</tspan><tspan x="130.85" y="0">u</tspan></text><path class="cls-1" d="M161.72,297.83a12.63,12.63,0,0,1-4-.64,8.2,8.2,0,0,1-3-1.66l1-2a8.52,8.52,0,0,0,2.67,1.51,9.35,9.35,0,0,0,3.36.61,7.73,7.73,0,0,0,2.59-.37,3,3,0,0,0,1.46-1,2.37,2.37,0,0,0,.47-1.44,2,2,0,0,0-.61-1.52,4.66,4.66,0,0,0-1.6-.93,17.86,17.86,0,0,0-2.15-.61c-.78-.17-1.57-.38-2.36-.61a11,11,0,0,1-2.17-.9,4.49,4.49,0,0,1-1.58-1.48,4.32,4.32,0,0,1-.6-2.39,4.88,4.88,0,0,1,.74-2.6,5.24,5.24,0,0,1,2.3-1.9,9.47,9.47,0,0,1,4-.72,12.2,12.2,0,0,1,3.16.42,8.85,8.85,0,0,1,2.71,1.2l-.86,2.09a8.3,8.3,0,0,0-2.48-1.14,9.88,9.88,0,0,0-2.53-.35,7.06,7.06,0,0,0-2.54.39,3,3,0,0,0-1.44,1.05,2.44,2.44,0,0,0-.46,1.46,2,2,0,0,0,.61,1.54,4.37,4.37,0,0,0,1.59.91c.66.23,1.38.43,2.16.62s1.57.38,2.36.61a10.07,10.07,0,0,1,2.17.89,4.43,4.43,0,0,1,1.58,1.46,4.2,4.2,0,0,1,.6,2.35,4.65,4.65,0,0,1-.76,2.57,5.24,5.24,0,0,1-2.33,1.91A9.68,9.68,0,0,1,161.72,297.83Z"/><path class="cls-1" d="M180.86,297.83a10.44,10.44,0,0,1-3.87-.71,9.28,9.28,0,0,1-3.1-2,9.15,9.15,0,0,1-2-3,9.77,9.77,0,0,1,0-7.41,9.11,9.11,0,0,1,2-3,9.26,9.26,0,0,1,3.08-2,10.47,10.47,0,0,1,3.89-.7,10.6,10.6,0,0,1,3.87.69,9.21,9.21,0,0,1,3.08,2,8.89,8.89,0,0,1,2,3,10,10,0,0,1,0,7.45,8.91,8.91,0,0,1-2,3,9.06,9.06,0,0,1-3.08,2A10.61,10.61,0,0,1,180.86,297.83Zm0-2.33a7.46,7.46,0,0,0,2.83-.52,6.72,6.72,0,0,0,2.25-1.48,6.79,6.79,0,0,0,1.48-2.23,7.08,7.08,0,0,0,.54-2.79,7.08,7.08,0,0,0-2-5,6.58,6.58,0,0,0-2.25-1.48,7.77,7.77,0,0,0-5.64,0,6.62,6.62,0,0,0-2.26,1.48,7.11,7.11,0,0,0-1.5,2.24,7,7,0,0,0-.54,2.78,7.08,7.08,0,0,0,.54,2.79,6.85,6.85,0,0,0,1.5,2.23A6.77,6.77,0,0,0,178,295,7.39,7.39,0,0,0,180.84,295.5Z"/><path class="cls-1" d="M194.55,297.62V279.34h2.61v16h9.89v2.28Z"/><path class="cls-1" d="M217.24,297.83a7.63,7.63,0,0,1-5.67-2.07c-1.38-1.37-2.06-3.38-2.06-6V279.34h2.61v10.29a6.33,6.33,0,0,0,1.34,4.46,5.87,5.87,0,0,0,7.63,0,6.33,6.33,0,0,0,1.34-4.46V279.34H225v10.39q0,4-2.05,6A7.6,7.6,0,0,1,217.24,297.83Z"/><path class="cls-1" d="M235.64,297.83a12.63,12.63,0,0,1-4-.64,8.2,8.2,0,0,1-3-1.66l1-2a8.52,8.52,0,0,0,2.67,1.51,9.35,9.35,0,0,0,3.36.61,7.69,7.69,0,0,0,2.59-.37,3,3,0,0,0,1.46-1,2.37,2.37,0,0,0,.47-1.44,2,2,0,0,0-.61-1.52,4.66,4.66,0,0,0-1.6-.93,17.86,17.86,0,0,0-2.15-.61c-.78-.17-1.57-.38-2.36-.61a11.21,11.21,0,0,1-2.17-.9,4.49,4.49,0,0,1-1.58-1.48,4.32,4.32,0,0,1-.6-2.39,4.88,4.88,0,0,1,.74-2.6,5.24,5.24,0,0,1,2.3-1.9,9.47,9.47,0,0,1,4-.72,12.2,12.2,0,0,1,3.16.42,8.85,8.85,0,0,1,2.71,1.2l-.86,2.09a8.3,8.3,0,0,0-2.48-1.14,9.88,9.88,0,0,0-2.53-.35,7.06,7.06,0,0,0-2.54.39,3,3,0,0,0-1.44,1.05,2.44,2.44,0,0,0-.46,1.46,2,2,0,0,0,.61,1.54,4.34,4.34,0,0,0,1.6.91c.65.23,1.37.43,2.15.62s1.57.38,2.36.61a10.07,10.07,0,0,1,2.17.89,4.43,4.43,0,0,1,1.58,1.46,4.2,4.2,0,0,1,.6,2.35,4.65,4.65,0,0,1-.76,2.57,5.24,5.24,0,0,1-2.33,1.91A9.65,9.65,0,0,1,235.64,297.83Z"/><path class="cls-1" d="M246.53,297.62V279.34h2.61v18.28Z"/><path class="cls-1" d="M265.28,297.62v-16H259v-2.27h15.12v2.27h-6.27v16Z"/><path class="cls-1" d="M277,297.62V279.34h7.13a8.5,8.5,0,0,1,5.58,1.68,5.76,5.76,0,0,1,2,4.69,6.18,6.18,0,0,1-.91,3.41,5.87,5.87,0,0,1-2.61,2.18,10.14,10.14,0,0,1-4.1.75h-5.7l1.18-1.2v6.77Zm2.61-6.51-1.18-1.28H284a5.8,5.8,0,0,0,3.8-1.08,3.75,3.75,0,0,0,1.29-3,3.71,3.71,0,0,0-1.29-3,5.86,5.86,0,0,0-3.8-1.07h-5.62l1.18-1.31Zm9.61,6.51L284.55,291h2.79l4.7,6.64Z"/><path class="cls-1" d="M293.19,297.62l8.28-18.28h2.58l8.31,18.28h-2.74l-7.39-16.82h1l-7.39,16.82Zm3.53-4.57.7-2.09h10.29l.76,2.09Z"/><path class="cls-1" d="M315.07,297.62V279.34h2.14l12.09,15h-1.12v-15h2.61v18.28h-2.14l-12.09-15h1.12v15Z"/><path class="cls-1" d="M341.6,297.83a12.63,12.63,0,0,1-4-.64,8.2,8.2,0,0,1-3-1.66l1-2a8.58,8.58,0,0,0,2.66,1.51,9.44,9.44,0,0,0,3.37.61,7.73,7.73,0,0,0,2.59-.37,3,3,0,0,0,1.46-1,2.37,2.37,0,0,0,.47-1.44,2,2,0,0,0-.61-1.52,4.66,4.66,0,0,0-1.6-.93,17.86,17.86,0,0,0-2.15-.61c-.78-.17-1.57-.38-2.36-.61a11,11,0,0,1-2.17-.9,4.49,4.49,0,0,1-1.58-1.48,4.32,4.32,0,0,1-.6-2.39,4.88,4.88,0,0,1,.74-2.6,5.18,5.18,0,0,1,2.3-1.9,9.47,9.47,0,0,1,4-.72,12.2,12.2,0,0,1,3.16.42,8.85,8.85,0,0,1,2.71,1.2l-.86,2.09a8.3,8.3,0,0,0-2.48-1.14,9.88,9.88,0,0,0-2.53-.35,7.06,7.06,0,0,0-2.54.39,3.09,3.09,0,0,0-1.45,1.05,2.5,2.5,0,0,0-.45,1.46,2,2,0,0,0,.61,1.54,4.37,4.37,0,0,0,1.59.91c.66.23,1.38.43,2.16.62s1.57.38,2.36.61a10.07,10.07,0,0,1,2.17.89,4.43,4.43,0,0,1,1.58,1.46,4.2,4.2,0,0,1,.6,2.35,4.65,4.65,0,0,1-.76,2.57,5.21,5.21,0,0,1-2.34,1.91A9.6,9.6,0,0,1,341.6,297.83Z"/><path class="cls-1" d="M352.49,297.62V279.34h7.13a9.94,9.94,0,0,1,4.1.76,5.76,5.76,0,0,1,2.61,2.19,6.86,6.86,0,0,1,0,6.83,5.89,5.89,0,0,1-2.61,2.19,9.93,9.93,0,0,1-4.1.77h-5.69l1.17-1.23v6.77Zm2.61-6.51-1.17-1.3h5.61a5.86,5.86,0,0,0,3.8-1.07,4.2,4.2,0,0,0,0-6.06,5.86,5.86,0,0,0-3.8-1.07h-5.61l1.17-1.31Z"/><path class="cls-1" d="M379.59,297.83a10.44,10.44,0,0,1-3.87-.71,9.28,9.28,0,0,1-3.1-2,9,9,0,0,1-2-3,9.65,9.65,0,0,1,0-7.41,8.93,8.93,0,0,1,2-3,9.26,9.26,0,0,1,3.08-2,10.47,10.47,0,0,1,3.89-.7,10.6,10.6,0,0,1,3.87.69,9.21,9.21,0,0,1,3.08,2,8.89,8.89,0,0,1,2,3,10,10,0,0,1,0,7.45,8.91,8.91,0,0,1-2,3,9.06,9.06,0,0,1-3.08,2A10.61,10.61,0,0,1,379.59,297.83Zm0-2.33a7.46,7.46,0,0,0,2.83-.52,6.72,6.72,0,0,0,2.25-1.48,7,7,0,0,0,1.49-2.23,7.26,7.26,0,0,0,.53-2.79,7.17,7.17,0,0,0-.53-2.78,7.25,7.25,0,0,0-1.49-2.24A6.58,6.58,0,0,0,382.4,282a7.77,7.77,0,0,0-5.64,0,6.71,6.71,0,0,0-2.26,1.48,7.11,7.11,0,0,0-1.5,2.24,7,7,0,0,0-.53,2.78,7.08,7.08,0,0,0,.53,2.79,6.8,6.8,0,0,0,3.76,3.71A7.39,7.39,0,0,0,379.57,295.5Z"/><path class="cls-1" d="M393.28,297.62V279.34h7.12A8.53,8.53,0,0,1,406,281a5.76,5.76,0,0,1,2,4.69,6.19,6.19,0,0,1-.92,3.41,5.76,5.76,0,0,1-2.61,2.18,10.08,10.08,0,0,1-4.1.75h-5.69l1.18-1.2v6.77Zm2.61-6.51-1.18-1.28h5.62a5.82,5.82,0,0,0,3.8-1.08,3.75,3.75,0,0,0,1.29-3,3.71,3.71,0,0,0-1.29-3,5.87,5.87,0,0,0-3.8-1.07h-5.62l1.18-1.31Zm9.61,6.51L400.85,291h2.79l4.7,6.64Z"/><path class="cls-1" d="M415.63,297.62v-16h-6.27v-2.27h15.12v2.27h-6.27v16Z"/><path class="cls-1" d="M423.64,297.62l8.28-18.28h2.59l8.3,18.28h-2.74l-7.39-16.82h1l-7.39,16.82Zm3.53-4.57.7-2.09h10.29l.76,2.09Z"/><path class="cls-1" d="M450.85,297.83a12.63,12.63,0,0,1-4-.64,8.34,8.34,0,0,1-3-1.66l1-2a8.47,8.47,0,0,0,2.66,1.51,9.4,9.4,0,0,0,3.37.61,7.77,7.77,0,0,0,2.59-.37,3,3,0,0,0,1.46-1,2.37,2.37,0,0,0,.47-1.44,2,2,0,0,0-.61-1.52,4.66,4.66,0,0,0-1.6-.93,17.86,17.86,0,0,0-2.15-.61c-.79-.17-1.57-.38-2.37-.61a11.11,11.11,0,0,1-2.16-.9,4.49,4.49,0,0,1-1.58-1.48,4.32,4.32,0,0,1-.6-2.39,4.88,4.88,0,0,1,.74-2.6,5.18,5.18,0,0,1,2.3-1.9,9.44,9.44,0,0,1,4-.72,12.2,12.2,0,0,1,3.16.42,9,9,0,0,1,2.71,1.2l-.86,2.09a8.3,8.3,0,0,0-2.48-1.14,9.94,9.94,0,0,0-2.53-.35,7,7,0,0,0-2.54.39,3.09,3.09,0,0,0-1.45,1.05,2.5,2.5,0,0,0-.45,1.46,2,2,0,0,0,.61,1.54,4.37,4.37,0,0,0,1.59.91c.66.23,1.37.43,2.16.62s1.57.38,2.36.61a10.28,10.28,0,0,1,2.17.89,4.43,4.43,0,0,1,1.58,1.46,4.2,4.2,0,0,1,.6,2.35,4.65,4.65,0,0,1-.76,2.57,5.21,5.21,0,0,1-2.34,1.91A9.6,9.6,0,0,1,450.85,297.83Z"/><path class="cls-1" d="M461.74,297.62V279.34h2.61v18.28Z"/><path class="cls-1" d="M476.86,297.62V279.34h8.2a8,8,0,0,1,4.85,1.26,4.08,4.08,0,0,1,1.7,3.46,4.25,4.25,0,0,1-2.45,4.08,5.55,5.55,0,0,1-2.43.55l.47-.79a6.74,6.74,0,0,1,2.77.55,4.46,4.46,0,0,1,1.9,1.61,4.61,4.61,0,0,1,.71,2.62,4.24,4.24,0,0,1-1.77,3.64,8.73,8.73,0,0,1-5.23,1.3Zm2.61-2.12h6a6.19,6.19,0,0,0,3.32-.73,2.9,2.9,0,0,0,0-4.62,6.19,6.19,0,0,0-3.32-.73h-6.24V287.3h5.59a5.5,5.5,0,0,0,3.08-.73,2.74,2.74,0,0,0,0-4.39,5.59,5.59,0,0,0-3.08-.73h-5.35Z"/><path class="cls-1" d="M493.59,297.62l8.28-18.28h2.59l8.3,18.28H510l-7.39-16.82h1l-7.39,16.82Zm3.53-4.57.71-2.09h10.28l.76,2.09Z"/><path class="cls-1" d="M515.48,297.62V279.34h2.61v18.28Zm2.35-8.15V287.2h11v2.27Zm10.75,8.15V279.34h2.62v18.28Z"/><path class="cls-1" d="M533.91,297.62l8.28-18.28h2.58l8.31,18.28h-2.74L543,280.8h1l-7.39,16.82Zm3.53-4.57.7-2.09h10.29l.76,2.09Z"/><path class="cls-1" d="M555.79,297.62V279.34h7.13a8.53,8.53,0,0,1,5.59,1.68,5.76,5.76,0,0,1,2,4.69,6.19,6.19,0,0,1-.92,3.41A5.87,5.87,0,0,1,567,291.3a10.11,10.11,0,0,1-4.1.75h-5.69l1.17-1.2v6.77Zm2.61-6.51-1.17-1.28h5.61a5.8,5.8,0,0,0,3.8-1.08,3.75,3.75,0,0,0,1.29-3,3.71,3.71,0,0,0-1.29-3,5.86,5.86,0,0,0-3.8-1.07h-5.61l1.17-1.31Zm9.61,6.51L563.36,291h2.8l4.7,6.64Z"/><path class="cls-1" d="M574.77,297.62V279.34h2.62v18.28Z"/><path class="cls-1" d="M587.13,297.62l8.27-18.28H598l8.3,18.28h-2.74l-7.39-16.82h1l-7.39,16.82Zm3.52-4.57.71-2.09h10.28l.76,2.09Z"/><path class="cls-1" d="M609,297.62V279.34h2.14l12.09,15h-1.13v-15h2.62v18.28h-2.15l-12.08-15h1.12v15Z"/><path class="cls-1" d="M630.21,297.62V279.34h7.7a11.08,11.08,0,0,1,5.16,1.15,8.41,8.41,0,0,1,3.47,3.21,9.83,9.83,0,0,1,0,9.56,8.55,8.55,0,0,1-3.47,3.21,11.21,11.21,0,0,1-5.16,1.15Zm2.61-2.28h4.94a8.31,8.31,0,0,0,3.92-.86,6.26,6.26,0,0,0,2.58-2.41,7.58,7.58,0,0,0,0-7.2,6.37,6.37,0,0,0-2.58-2.4,8.43,8.43,0,0,0-3.92-.86h-4.94Z"/><path class="cls-1" d="M648.75,297.62,657,279.34h2.59l8.3,18.28h-2.74l-7.39-16.82h1.05l-7.39,16.82Zm3.52-4.57L653,291h10.29l.75,2.09Z"/><path class="cls-1" d="M750.38,36.9V24h-5V22.18H757.5V24h-5V36.9Z"/><path class="cls-1" d="M759.79,36.9V22.18h1.72l6.6,11.12h-.92l6.51-11.12h1.73l0,14.72h-2l0-11.54h.48l-5.8,9.75h-1l-5.84-9.75h.53V36.9Z"/></g></g></g></svg>