<svg xmlns="http://www.w3.org/2000/svg" viewBox="0 0 324.73 240.89"><defs><style>.cls-1{fill:#0e71eb;}.cls-2{fill:#95e6d8;}.cls-3{fill:#bee6da;}</style></defs><g id="Layer_2" data-name="Layer 2"><g id="LOGO_MBUD" data-name="LOGO MBUD"><g id="LOGO_V2" data-name="LOGO V2"><path class="cls-1" d="M18.81,223.77a19.85,19.85,0,0,1-7-1.2,16.63,16.63,0,0,1-5.57-3.39,16,16,0,0,1,0-23.29,16.5,16.5,0,0,1,5.57-3.4,20.08,20.08,0,0,1,7-1.19,20,20,0,0,1,7,1.19,16.46,16.46,0,0,1,5.54,3.4A15.59,15.59,0,0,1,35,201a16.73,16.73,0,0,1,0,13,15.61,15.61,0,0,1-3.66,5.17,16.6,16.6,0,0,1-5.54,3.39A19.8,19.8,0,0,1,18.81,223.77Zm0-8.47a6.89,6.89,0,0,0,2.73-.54,6.37,6.37,0,0,0,2.21-1.53,6.82,6.82,0,0,0,1.49-2.44,10.29,10.29,0,0,0,0-6.52,6.91,6.91,0,0,0-1.49-2.44,6.65,6.65,0,0,0-2.21-1.53,7.3,7.3,0,0,0-5.46,0,6.79,6.79,0,0,0-2.22,1.53,7,7,0,0,0-1.48,2.44,10.11,10.11,0,0,0,0,6.52,6.94,6.94,0,0,0,1.48,2.44,6.5,6.5,0,0,0,2.22,1.53A6.86,6.86,0,0,0,18.81,215.3Z" transform="translate(-1.29)"/><path class="cls-1" d="M40.15,223.06V192h8.6l12.42,20.27H56.65L68.71,192h8.61l.09,31.05H67.87l-.09-16.68h1.51L61,220.26H56.43l-8.61-13.88h1.86v16.68Z" transform="translate(-1.29)"/><path class="cls-1" d="M82.47,223.06V192H99.06c4.28,0,7.45.76,9.49,2.28a7,7,0,0,1,3.06,5.83,7.1,7.1,0,0,1-1.31,4.2,8.72,8.72,0,0,1-3.79,2.9,15.57,15.57,0,0,1-6.12,1.07l.89-2.4a17.38,17.38,0,0,1,6.27,1,8.94,8.94,0,0,1,4.08,3,7.55,7.55,0,0,1,1.45,4.64,7.2,7.2,0,0,1-3.35,6.3q-3.36,2.25-9.79,2.26Zm10.29-7.32h6.3a4.46,4.46,0,0,0,2.59-.62,2.34,2.34,0,0,0,0-3.64,4.46,4.46,0,0,0-2.59-.62h-7v-6.92h5.59a4.44,4.44,0,0,0,2.59-.6,2.21,2.21,0,0,0,0-3.44,4.61,4.61,0,0,0-2.59-.58H92.76Z" transform="translate(-1.29)"/><path class="cls-1" d="M112.94,223.06,126.52,192h10.29l13.57,31.05H139.56l-10-26.09h4.08l-10,26.09Zm8.08-5.41,2.66-7.54H138l2.66,7.54Z" transform="translate(-1.29)"/><path class="cls-1" d="M152.07,223.06V192h10.29v31.05Zm9.36-6.66-.58-11.49L172.56,192H184l-13.13,14.46L165,212.41Zm11,6.66L163.33,211l6.79-7.18,14.46,19.25Z" transform="translate(-1.29)"/><path class="cls-1" d="M199.31,223.06V192H215.9q6.43,0,9.5,2.28a7,7,0,0,1,3.06,5.83,7.1,7.1,0,0,1-1.31,4.2,8.78,8.78,0,0,1-3.79,2.9,15.58,15.58,0,0,1-6.13,1.07l.89-2.4a17.44,17.44,0,0,1,6.28,1,8.94,8.94,0,0,1,4.08,3,7.54,7.54,0,0,1,1.44,4.64,7.2,7.2,0,0,1-3.35,6.3q-3.34,2.25-9.78,2.26Zm10.29-7.32h6.3a4.49,4.49,0,0,0,2.6-.62,2.36,2.36,0,0,0,0-3.64,4.49,4.49,0,0,0-2.6-.62h-7v-6.92h5.59a4.45,4.45,0,0,0,2.6-.6,2.21,2.21,0,0,0,0-3.44,4.63,4.63,0,0,0-2.6-.58H209.6Z" transform="translate(-1.29)"/><path class="cls-1" d="M233.6,223.06V192h10.47v31.05Z" transform="translate(-1.29)"/><path class="cls-1" d="M249.13,223.06V192h14.5q7.15,0,10.87,3.15a10.6,10.6,0,0,1,3.73,8.56,10.48,10.48,0,0,1-6.63,10.16,19,19,0,0,1-7.52,1.37h-9.14l4.66-4.3v12.11Zm10.47-11-4.66-4.75h8.47a4.59,4.59,0,0,0,3.22-1,3.92,3.92,0,0,0,0-5.32,4.59,4.59,0,0,0-3.22-1h-8.47l4.66-4.75Zm8.11,11-7.63-11.31h11.1l7.71,11.31Z" transform="translate(-1.29)"/><path class="cls-1" d="M297,223.77q-7.14,0-11.14-3.86t-4-10.83V192h10.47v16.76q0,3.55,1.29,5a4.79,4.79,0,0,0,6.94,0q1.26-1.49,1.26-5V192h10.3v17.07q0,7-4,10.83T297,223.77Z" transform="translate(-1.29)"/><path class="cls-2" d="M35.08,240.89a6.15,6.15,0,0,1-2-.32,4.09,4.09,0,0,1-1.47-.81l.47-1a4.12,4.12,0,0,0,1.31.74,4.64,4.64,0,0,0,1.65.3,3.72,3.72,0,0,0,1.27-.18,1.56,1.56,0,0,0,.72-.49,1.2,1.2,0,0,0,.23-.71,1,1,0,0,0-.3-.75,2.26,2.26,0,0,0-.78-.45,7.38,7.38,0,0,0-1.06-.3l-1.16-.3a6,6,0,0,1-1.06-.44,2.27,2.27,0,0,1-.78-.73,2.16,2.16,0,0,1-.29-1.17,2.35,2.35,0,0,1,.36-1.27,2.6,2.6,0,0,1,1.13-.94,4.71,4.71,0,0,1,1.94-.35,6.28,6.28,0,0,1,1.55.2,4.51,4.51,0,0,1,1.33.59l-.42,1a4.08,4.08,0,0,0-1.22-.56,4.51,4.51,0,0,0-1.24-.17,3.37,3.37,0,0,0-1.24.19,1.52,1.52,0,0,0-.71.51,1.23,1.23,0,0,0-.23.72,1,1,0,0,0,.3.75,2.16,2.16,0,0,0,.79.45q.48.16,1,.3c.39.09.77.19,1.16.3a5.35,5.35,0,0,1,1.06.44,2.25,2.25,0,0,1,.78.72,2.11,2.11,0,0,1,.29,1.15,2.29,2.29,0,0,1-.37,1.26,2.55,2.55,0,0,1-1.14.93A4.67,4.67,0,0,1,35.08,240.89Z" transform="translate(-1.29)"/><path class="cls-2" d="M44.47,240.89a5.14,5.14,0,0,1-1.9-.35,4.45,4.45,0,0,1-1.52-1,4.33,4.33,0,0,1-1-1.45,4.59,4.59,0,0,1,1-5.09,4.64,4.64,0,0,1,1.51-1,5,5,0,0,1,1.91-.35,5.08,5.08,0,0,1,1.89.34,4.44,4.44,0,0,1,2.51,2.42,4.76,4.76,0,0,1,.35,1.82,4.7,4.7,0,0,1-.35,1.83,4.47,4.47,0,0,1-1,1.46,4.53,4.53,0,0,1-1.51,1A5.29,5.29,0,0,1,44.47,240.89Zm0-1.14a3.65,3.65,0,0,0,1.38-.26,3.32,3.32,0,0,0,1.11-.72,3.47,3.47,0,0,0,.73-1.1,3.71,3.71,0,0,0,0-2.73,3.7,3.7,0,0,0-.73-1.1,3.51,3.51,0,0,0-1.11-.73,3.58,3.58,0,0,0-3.87.73,3.74,3.74,0,0,0-.74,1.1,3.71,3.71,0,0,0,0,2.73,3.49,3.49,0,0,0,.74,1.1,3.43,3.43,0,0,0,1.11.72A3.65,3.65,0,0,0,44.46,239.75Z" transform="translate(-1.29)"/><path class="cls-2" d="M51.18,240.78v-9h1.28v7.85h4.85v1.11Z" transform="translate(-1.29)"/><path class="cls-2" d="M62.31,240.89a3.76,3.76,0,0,1-2.78-1,4,4,0,0,1-1-3v-5.1H59.8v5.05a3.1,3.1,0,0,0,.66,2.19,2.87,2.87,0,0,0,3.73,0,3.1,3.1,0,0,0,.66-2.19v-5.05H66.1v5.1a4,4,0,0,1-1,3A3.76,3.76,0,0,1,62.31,240.89Z" transform="translate(-1.29)"/><path class="cls-2" d="M71.33,240.89a6.15,6.15,0,0,1-2-.32,4.09,4.09,0,0,1-1.47-.81l.48-1a4,4,0,0,0,1.3.74,4.64,4.64,0,0,0,1.65.3,3.72,3.72,0,0,0,1.27-.18,1.56,1.56,0,0,0,.72-.49,1.2,1.2,0,0,0,.23-.71,1,1,0,0,0-.3-.75,2.26,2.26,0,0,0-.78-.45,7.38,7.38,0,0,0-1.06-.3l-1.16-.3a6,6,0,0,1-1.06-.44,2.27,2.27,0,0,1-.78-.73,2.16,2.16,0,0,1-.29-1.17,2.35,2.35,0,0,1,.36-1.27,2.6,2.6,0,0,1,1.13-.94,4.71,4.71,0,0,1,1.94-.35,6.28,6.28,0,0,1,1.55.2,4.51,4.51,0,0,1,1.33.59l-.42,1a4.2,4.2,0,0,0-1.22-.56,4.51,4.51,0,0,0-1.24-.17,3.37,3.37,0,0,0-1.24.19,1.52,1.52,0,0,0-.71.51,1.23,1.23,0,0,0-.23.72,1,1,0,0,0,.3.75,2.24,2.24,0,0,0,.79.45q.48.16,1.05.3c.39.09.77.19,1.16.3a5.35,5.35,0,0,1,1.06.44,2.25,2.25,0,0,1,.78.72,2.11,2.11,0,0,1,.29,1.15,2.29,2.29,0,0,1-.37,1.26,2.55,2.55,0,0,1-1.14.93A4.67,4.67,0,0,1,71.33,240.89Z" transform="translate(-1.29)"/><path class="cls-2" d="M76.67,240.78v-9H78v9Z" transform="translate(-1.29)"/><path class="cls-2" d="M85.87,240.78v-7.84H82.79v-1.12h7.42v1.12H87.13v7.84Z" transform="translate(-1.29)"/><path class="cls-2" d="M91.6,240.78v-9h3.5a4.19,4.19,0,0,1,2.74.83,2.83,2.83,0,0,1,1,2.3,3,3,0,0,1-.45,1.67,2.94,2.94,0,0,1-1.28,1.07,5.08,5.08,0,0,1-2,.37H92.31l.57-.59v3.31Zm1.28-3.18-.57-.63h2.75a2.84,2.84,0,0,0,1.86-.53,2.05,2.05,0,0,0,0-3,2.85,2.85,0,0,0-1.86-.52H92.31l.57-.64Zm4.71,3.18-2.27-3.25h1.37l2.3,3.25Z" transform="translate(-1.29)"/><path class="cls-2" d="M99.55,240.78l4.06-9h1.27l4.07,9h-1.34L104,232.54h.51l-3.63,8.24Zm1.73-2.24.35-1h5l.38,1Z" transform="translate(-1.29)"/><path class="cls-2" d="M110.29,240.78v-9h1l5.93,7.36h-.55v-7.36H118v9h-1L111,233.42h.56v7.36Z" transform="translate(-1.29)"/><path class="cls-2" d="M123.29,240.89a6.15,6.15,0,0,1-2-.32,4.09,4.09,0,0,1-1.47-.81l.48-1a4,4,0,0,0,1.3.74,4.64,4.64,0,0,0,1.65.3,3.68,3.68,0,0,0,1.27-.18,1.46,1.46,0,0,0,.72-.49,1.2,1.2,0,0,0,.23-.71,1,1,0,0,0-.3-.75,2.26,2.26,0,0,0-.78-.45,7,7,0,0,0-1.06-.3l-1.16-.3a6,6,0,0,1-1.06-.44,2.16,2.16,0,0,1-.77-.73,2.07,2.07,0,0,1-.3-1.17,2.27,2.27,0,0,1,.37-1.27,2.52,2.52,0,0,1,1.12-.94,4.74,4.74,0,0,1,1.94-.35,6.28,6.28,0,0,1,1.55.2,4.51,4.51,0,0,1,1.33.59l-.42,1a4.08,4.08,0,0,0-1.22-.56,4.51,4.51,0,0,0-1.24-.17,3.37,3.37,0,0,0-1.24.19,1.57,1.57,0,0,0-.71.51,1.23,1.23,0,0,0-.23.72,1,1,0,0,0,.31.75,2.11,2.11,0,0,0,.78.45q.48.16,1,.3c.39.09.77.19,1.16.3a5.44,5.44,0,0,1,1.07.44,2.22,2.22,0,0,1,.77.72,2,2,0,0,1,.29,1.15,2.29,2.29,0,0,1-.37,1.26,2.5,2.5,0,0,1-1.14.93A4.67,4.67,0,0,1,123.29,240.89Z" transform="translate(-1.29)"/><path class="cls-2" d="M128.63,240.78v-9h3.5a5,5,0,0,1,2,.37,2.9,2.9,0,0,1,1.28,1.08,3.34,3.34,0,0,1,0,3.35,2.94,2.94,0,0,1-1.28,1.07,4.87,4.87,0,0,1-2,.38h-2.79l.57-.6v3.31Zm1.28-3.18-.57-.64h2.75a2.84,2.84,0,0,0,1.86-.53,1.79,1.79,0,0,0,.64-1.48,1.81,1.81,0,0,0-.64-1.49,2.85,2.85,0,0,0-1.86-.52h-2.75l.57-.64Z" transform="translate(-1.29)"/><path class="cls-2" d="M141.92,240.89a5.17,5.17,0,0,1-1.9-.35,4.4,4.4,0,0,1-1.51-1,4.33,4.33,0,0,1-1-1.45,4.52,4.52,0,0,1,2.51-6.05,4.91,4.91,0,0,1,1.9-.35,5.1,5.1,0,0,1,1.9.34,4.48,4.48,0,0,1,1.51,1,4.2,4.2,0,0,1,1,1.46,4.58,4.58,0,0,1,.36,1.82,4.53,4.53,0,0,1-.36,1.83,4.29,4.29,0,0,1-1,1.46,4.64,4.64,0,0,1-1.51,1A5.3,5.3,0,0,1,141.92,240.89Zm0-1.14a3.66,3.66,0,0,0,1.39-.26,3.27,3.27,0,0,0,1.83-1.82,3.59,3.59,0,0,0,0-2.73,3.52,3.52,0,0,0-.73-1.1,3.47,3.47,0,0,0-1.1-.73,3.93,3.93,0,0,0-2.76,0,3.4,3.4,0,0,0-1.11.73,3.59,3.59,0,0,0-.74,3.83,3.33,3.33,0,0,0,.74,1.1,3.23,3.23,0,0,0,1.11.72A3.63,3.63,0,0,0,141.91,239.75Z" transform="translate(-1.29)"/><path class="cls-2" d="M148.63,240.78v-9h3.5a4.17,4.17,0,0,1,2.74.83,2.8,2.8,0,0,1,1,2.3,3,3,0,0,1-.45,1.67,2.89,2.89,0,0,1-1.28,1.07,5,5,0,0,1-2,.37h-2.79l.58-.59v3.31Zm1.29-3.18-.58-.63h2.75a2.89,2.89,0,0,0,1.87-.53,2.08,2.08,0,0,0,0-3,2.89,2.89,0,0,0-1.87-.52h-2.75l.58-.64Zm4.71,3.18-2.28-3.25h1.37l2.3,3.25Z" transform="translate(-1.29)"/><path class="cls-2" d="M159.59,240.78v-7.84h-3.07v-1.12h7.42v1.12h-3.08v7.84Z" transform="translate(-1.29)"/><path class="cls-2" d="M163.53,240.78l4.05-9h1.27l4.07,9h-1.34L168,232.54h.51l-3.63,8.24Zm1.72-2.24.35-1h5.05l.37,1Z" transform="translate(-1.29)"/><path class="cls-2" d="M176.87,240.89a6.1,6.1,0,0,1-2-.32,4.09,4.09,0,0,1-1.47-.81l.47-1a4,4,0,0,0,1.31.74,4.64,4.64,0,0,0,1.65.3,3.76,3.76,0,0,0,1.27-.18,1.48,1.48,0,0,0,.71-.49,1.14,1.14,0,0,0,.23-.71,1,1,0,0,0-.3-.75,2.26,2.26,0,0,0-.78-.45,7.24,7.24,0,0,0-1.05-.3c-.39-.09-.78-.19-1.16-.3a6.13,6.13,0,0,1-1.07-.44,2.24,2.24,0,0,1-.77-.73,2.07,2.07,0,0,1-.29-1.17A2.35,2.35,0,0,1,174,233a2.55,2.55,0,0,1,1.13-.94,4.68,4.68,0,0,1,1.94-.35,6.34,6.34,0,0,1,1.55.2,4.63,4.63,0,0,1,1.33.59l-.43,1a4.15,4.15,0,0,0-1.21-.56,4.57,4.57,0,0,0-1.24-.17,3.42,3.42,0,0,0-1.25.19,1.57,1.57,0,0,0-.71.51,1.22,1.22,0,0,0-.22.72,1,1,0,0,0,.3.75,2.11,2.11,0,0,0,.78.45,10.55,10.55,0,0,0,1.06.3l1.16.3a5.35,5.35,0,0,1,1.06.44,2.13,2.13,0,0,1,.77.72,2,2,0,0,1,.3,1.15,2.37,2.37,0,0,1-.37,1.26,2.53,2.53,0,0,1-1.15.93A4.65,4.65,0,0,1,176.87,240.89Z" transform="translate(-1.29)"/><path class="cls-2" d="M182.21,240.78v-9h1.28v9Z" transform="translate(-1.29)"/><path class="cls-2" d="M189.62,240.78v-9h4a4,4,0,0,1,2.39.62,2,2,0,0,1,.83,1.7,2.17,2.17,0,0,1-.33,1.23,2.19,2.19,0,0,1-.88.77,2.63,2.63,0,0,1-1.19.27l.23-.39a3.2,3.2,0,0,1,1.36.27,2.12,2.12,0,0,1,1.28,2.07,2.1,2.1,0,0,1-.86,1.79,4.35,4.35,0,0,1-2.57.63Zm1.28-1h2.95a3,3,0,0,0,1.62-.36,1.42,1.42,0,0,0,0-2.27,3,3,0,0,0-1.62-.36h-3.06v-1h2.74a2.7,2.7,0,0,0,1.51-.36,1.34,1.34,0,0,0,0-2.15,2.7,2.7,0,0,0-1.51-.36H190.9Z" transform="translate(-1.29)"/><path class="cls-2" d="M197.83,240.78l4.06-9h1.27l4.07,9h-1.35l-3.62-8.24h.51l-3.62,8.24Zm1.73-2.24.34-1h5l.37,1Z" transform="translate(-1.29)"/><path class="cls-2" d="M208.56,240.78v-9h1.28v9Zm1.15-4v-1.11h5.39v1.11Zm5.28,4v-9h1.28v9Z" transform="translate(-1.29)"/><path class="cls-2" d="M217.6,240.78l4.06-9h1.27l4.07,9h-1.35L222,232.54h.51l-3.62,8.24Zm1.73-2.24.34-1h5.05l.37,1Z" transform="translate(-1.29)"/><path class="cls-2" d="M228.33,240.78v-9h3.5a4.19,4.19,0,0,1,2.74.83,2.83,2.83,0,0,1,1,2.3,3,3,0,0,1-.45,1.67,2.94,2.94,0,0,1-1.28,1.07,5.08,5.08,0,0,1-2,.37H229l.57-.59v3.31Zm1.28-3.18L229,237h2.75a2.84,2.84,0,0,0,1.86-.53,2.05,2.05,0,0,0,0-3,2.85,2.85,0,0,0-1.86-.52H229l.57-.64Zm4.71,3.18L232,237.53h1.37l2.31,3.25Z" transform="translate(-1.29)"/><path class="cls-2" d="M237.64,240.78v-9h1.28v9Z" transform="translate(-1.29)"/><path class="cls-2" d="M243.7,240.78l4.06-9H249l4.08,9h-1.35l-3.62-8.24h.51L245,240.78Zm1.73-2.24.34-1h5l.37,1Z" transform="translate(-1.29)"/><path class="cls-2" d="M254.43,240.78v-9h1l5.93,7.36h-.55v-7.36h1.28v9h-1.05l-5.93-7.36h.55v7.36Z" transform="translate(-1.29)"/><path class="cls-2" d="M264.83,240.78v-9h3.77a5.51,5.51,0,0,1,2.53.56,4.19,4.19,0,0,1,1.7,1.58,4.81,4.81,0,0,1,0,4.69,4.1,4.1,0,0,1-1.7,1.57,5.39,5.39,0,0,1-2.53.56Zm1.28-1.11h2.42a4.12,4.12,0,0,0,1.92-.42,3,3,0,0,0,1.26-1.19,3.67,3.67,0,0,0,0-3.52,2.94,2.94,0,0,0-1.26-1.18,4.12,4.12,0,0,0-1.92-.42h-2.42Z" transform="translate(-1.29)"/><path class="cls-2" d="M273.92,240.78l4.05-9h1.27l4.07,9H282l-3.62-8.24h.51l-3.63,8.24Zm1.72-2.24.35-1H281l.37,1Z" transform="translate(-1.29)"/><path class="cls-2" d="M318.15,196.63v-4h-1.59V192h3.82v.57H318.8v4Z" transform="translate(-1.29)"/><path class="cls-2" d="M321.1,196.63V192h.54l2.07,3.49h-.29l2.05-3.49H326v4.62h-.64V193h.15l-1.82,3.07h-.3L321.57,193h.17v3.63Z" transform="translate(-1.29)"/><g id="LOgo"><path class="cls-2" d="M221,34.86A69.74,69.74,0,0,0,109.84,81a82.12,82.12,0,0,0-12-6.28,84.06,84.06,0,0,0-9.74-3.43h0A79.07,79.07,0,0,1,220.71,34.55Z" transform="translate(-1.29)"/><path class="cls-1" d="M230.24,43.55A70.44,70.44,0,0,0,222.38,36L221,34.86l-.84-.66A70.84,70.84,0,0,0,208,26.73,77.8,77.8,0,0,0,88.08,71.32h0A83,83,0,0,0,65.4,68.2h-.24A90.5,90.5,0,0,1,230.24,43.55Z" transform="translate(-1.29)"/><path class="cls-1" d="M199.81,124l-1.56,6a4,4,0,0,1-.69,1.44q-4.19-.12-8.3-.62L123.17,91.5a83.53,83.53,0,0,0-8.68-7.31,4.1,4.1,0,0,1,1.62-3.51l8.14-6.21A4.12,4.12,0,0,1,129,74.3l69,45.22A4.12,4.12,0,0,1,199.81,124Z" transform="translate(-1.29)"/><path class="cls-1" d="M190.28,111,144.43,81.2a2.57,2.57,0,0,1-.07-4.26l5.2-3.66a2.57,2.57,0,0,1,3,0L194.29,103a2.57,2.57,0,0,1,1,2.84l-1.12,3.7A2.57,2.57,0,0,1,190.28,111Z" transform="translate(-1.29)"/><path class="cls-1" d="M237.52,130.86a95.73,95.73,0,0,1-33.75,34.42,90.51,90.51,0,0,1-139-54.2c-.73-1.3-1.51-2.56-2.33-3.8A62,62,0,0,0,29,82.32,77.54,77.54,0,0,1,60,73.54c.72-.05,1.44-.09,2.17-.12s1.26,0,1.9-.06H65.4a78.25,78.25,0,0,1,21.56,3h0a78.22,78.22,0,0,1,33.68,19.87c.92.92,1.82,1.86,2.69,2.83,1.31,1.67,2.66,3.3,4.07,4.88a99.17,99.17,0,0,0,7.73,7.75,97.35,97.35,0,0,0,65.26,25h.17a18.22,18.22,0,0,0,18.12-18.8c0-.38,0-.77,0-1.16-1.23-26.15-16.06-39.23-29.12-39.23a18,18,0,0,0-2.44.16,18.67,18.67,0,0,1-2.19.14c-11.67,0-13.57-13.15,1.31-14.59a23.46,23.46,0,0,1,2.36-.12c12.26,0,22.71,9,26.58,9a1.4,1.4,0,0,0,1.49-1.23c2.55-10.61-8.09-19.23-17.68-19.23a14.75,14.75,0,0,0-3.88.51,36.69,36.69,0,0,1-9.66,1.46c-14,0-17.08-11.08-12.56-16,4.27-4.67,10.26-6.47,16.15-6.47a30.28,30.28,0,0,1,14.61,3.74c15.93,9.16,24.47,23.84,24.08,38-.31,10.86,3.22,18.7,9.09,18.7a7.07,7.07,0,0,0,1.42-.15c2.93-.59,7.41-6.15-1.64-17.13-5.69-6.89-6.83-6.91-7.45-9-.78-2.61.27-4,2.25-4,2.7,0,7.12,2.62,11,8.4C250.48,81.74,249.17,112.58,237.52,130.86Z" transform="translate(-1.29)"/><path class="cls-3" d="M194.85,94.47s-10.47.75-8.17-7.24,15.49-5.24,22.09,5.85c3.91,6.56,7.77,18.35,1.33,18.34-3.84,0-5-6.46-5-6.46s-.61-1.81-2.08-.28-5.22.39-5.2-2c0-2,2.62-3.39,4.59-2S203.19,94.69,194.85,94.47Z" transform="translate(-1.29)"/></g></g></g></g></svg>