<svg xmlns="http://www.w3.org/2000/svg" viewBox="0 0 305.05 241.01"><defs><style>.cls-1{fill:#fff;}</style></defs><g id="Layer_2" data-name="Layer 2"><g id="LOGO_MBUD" data-name="LOGO MBUD"><g id="LOGO_PURE" data-name="LOGO PURE"><g id="LOgo"><path class="cls-1" d="M215.86,31.74a92.91,92.91,0,0,0-108.2,78.89,111.12,111.12,0,0,0-16-8.37c-2.7-1.14-5.43-2.16-8.18-3.08l.06-.25A98.66,98.66,0,0,1,215.86,31.74Z" transform="translate(0 -2.7)"/><path class="cls-1" d="M268,60.71A93.44,93.44,0,0,0,257.56,50.6c-.6-.5-1.21-1-1.82-1.47-.13-.14-.27-.27-.4-.4a106,106,0,0,0-14.17-11.89A105.39,105.39,0,0,0,78.63,97.69a110.94,110.94,0,0,0-30.16-4.14h-.32A120.54,120.54,0,0,1,268,60.71Z" transform="translate(0 -2.7)"/><path class="cls-1" d="M227.5,167.89l-2.09,8a5.35,5.35,0,0,1-.92,1.92c-3.71-.11-7.4-.39-11.05-.83l-88-52.44a111.06,111.06,0,0,0-11.56-9.73,5.45,5.45,0,0,1,2.15-4.68l10.85-8.28a5.49,5.49,0,0,1,6.36-.22l92,60.23A5.54,5.54,0,0,1,227.5,167.89Z" transform="translate(0 -2.7)"/><path class="cls-1" d="M214.8,150.54l-61.07-39.69a3.43,3.43,0,0,1-.1-5.68l6.93-4.87a3.43,3.43,0,0,1,4,0l55.62,39.62a3.42,3.42,0,0,1,1.29,3.78l-1.49,4.94A3.41,3.41,0,0,1,214.8,150.54Z" transform="translate(0 -2.7)"/><path class="cls-1" d="M277.72,177a127.73,127.73,0,0,1-45,45.84A120.56,120.56,0,0,1,47.61,150.65c-1-1.72-2-3.41-3.1-5.06A82.57,82.57,0,0,0,0,112.34a103.49,103.49,0,0,1,41.2-11.69c1-.07,1.92-.12,2.89-.16s1.68-.07,2.53-.08l1.84,0a104.72,104.72,0,0,1,28.73,4h0a103.58,103.58,0,0,1,29.73,13.94,105.11,105.11,0,0,1,15.13,12.53c1.22,1.22,2.42,2.48,3.58,3.76q2.61,3.34,5.43,6.51a131.84,131.84,0,0,0,10.29,10.32,129.7,129.7,0,0,0,86.93,33.28h.21a24.26,24.26,0,0,0,24.14-25c0-.5,0-1-.06-1.54-1.65-34.84-21.4-52.26-38.79-52.26a25.1,25.1,0,0,0-3.25.21,23,23,0,0,1-2.91.19c-15.55,0-18.08-17.51,1.74-19.43,1.05-.1,2.1-.15,3.14-.15,16.33,0,30.25,12,35.4,12a1.86,1.86,0,0,0,2-1.64c3.4-14.14-10.77-25.61-23.56-25.61a19.33,19.33,0,0,0-5.16.68,48.64,48.64,0,0,1-12.87,1.94c-18.6,0-22.74-14.75-16.72-21.33,5.68-6.22,13.67-8.62,21.51-8.62a40.4,40.4,0,0,1,19.46,5c21.21,12.2,32.6,31.76,32.07,50.58-.41,14.47,4.3,24.91,12.11,24.91a10.44,10.44,0,0,0,1.89-.19c3.91-.79,9.88-8.2-2.19-22.82-7.58-9.18-9.1-9.2-9.92-12-1-3.47.37-5.35,3-5.35,3.59,0,9.48,3.49,14.65,11.18C295,111.57,293.23,152.65,277.72,177Z" transform="translate(0 -2.7)"/><path class="cls-1" d="M220.88,128.53s-13.94,1-10.88-9.65,20.63-7,29.43,7.79c5.21,8.75,10.35,24.44,1.77,24.43-5.12,0-6.71-8.6-6.71-8.6s-.8-2.41-2.77-.37-6.95.51-6.92-2.62c0-2.7,3.5-4.52,6.12-2.7S232,128.82,220.88,128.53Z" transform="translate(0 -2.7)"/></g><path class="cls-1" d="M280,17.86V5h-5V3.15h12.17V5h-5.05V17.86Z" transform="translate(0 -2.7)"/><path class="cls-1" d="M289.4,17.86V3.15h1.72l6.6,11.12h-.92l6.51-11.12H305l0,14.71h-2l0-11.53h.48l-5.8,9.75h-1l-5.84-9.75h.53V17.86Z" transform="translate(0 -2.7)"/></g></g></g></svg>