<svg xmlns="http://www.w3.org/2000/svg" viewBox="0 0 324.73 241.23"><defs><style>.cls-1{fill:#fff;}</style></defs><g id="Layer_2" data-name="Layer 2"><g id="LOGO_MBUD" data-name="LOGO MBUD"><g id="LOGO_V2" data-name="LOGO V2"><path class="cls-1" d="M18.81,224.11a19.85,19.85,0,0,1-7-1.2,16.47,16.47,0,0,1-5.57-3.39,16,16,0,0,1,0-23.29,16.63,16.63,0,0,1,5.57-3.39,19.85,19.85,0,0,1,7-1.2,19.8,19.8,0,0,1,7,1.2,16.6,16.6,0,0,1,5.54,3.39A15.53,15.53,0,0,1,35,201.38a16.71,16.71,0,0,1,0,13,15.51,15.51,0,0,1-3.66,5.17,16.44,16.44,0,0,1-5.54,3.39A19.8,19.8,0,0,1,18.81,224.11Zm0-8.47a7.07,7.07,0,0,0,2.73-.53,6.53,6.53,0,0,0,2.21-1.54,6.77,6.77,0,0,0,1.49-2.43,10.32,10.32,0,0,0,0-6.53,6.91,6.91,0,0,0-1.49-2.44,6.65,6.65,0,0,0-2.21-1.53,7.3,7.3,0,0,0-5.46,0,6.79,6.79,0,0,0-2.22,1.53,7,7,0,0,0-1.48,2.44,10.14,10.14,0,0,0,0,6.53,6.9,6.9,0,0,0,1.48,2.43,6.67,6.67,0,0,0,2.22,1.54A7,7,0,0,0,18.81,215.64Z" transform="translate(-1.29)"/><path class="cls-1" d="M40.15,223.4V192.35h8.6l12.42,20.27H56.65l12.06-20.27h8.61l.09,31.05H67.87l-.09-16.68h1.51L61,220.61H56.43l-8.61-13.89h1.86V223.4Z" transform="translate(-1.29)"/><path class="cls-1" d="M82.47,223.4V192.35H99.06c4.28,0,7.45.76,9.49,2.28a7,7,0,0,1,3.06,5.84,7.09,7.09,0,0,1-1.31,4.19,8.65,8.65,0,0,1-3.79,2.9,15.57,15.57,0,0,1-6.12,1.07l.89-2.4a17.38,17.38,0,0,1,6.27,1,9,9,0,0,1,4.08,2.95,7.57,7.57,0,0,1,1.45,4.64,7.2,7.2,0,0,1-3.35,6.3q-3.36,2.27-9.79,2.26Zm10.29-7.32h6.3a4.46,4.46,0,0,0,2.59-.62,2.34,2.34,0,0,0,0-3.64,4.46,4.46,0,0,0-2.59-.62h-7v-6.92h5.59a4.44,4.44,0,0,0,2.59-.6,2.21,2.21,0,0,0,0-3.44,4.62,4.62,0,0,0-2.59-.57H92.76Z" transform="translate(-1.29)"/><path class="cls-1" d="M112.94,223.4l13.58-31.05h10.29l13.57,31.05H139.56l-10-26.08h4.08l-10,26.08ZM121,218l2.66-7.54H138l2.66,7.54Z" transform="translate(-1.29)"/><path class="cls-1" d="M152.07,223.4V192.35h10.29V223.4Zm9.36-6.65-.58-11.49,11.71-12.91H184l-13.13,14.46L165,212.75Zm11,6.65-9.14-12.07,6.79-7.18,14.46,19.25Z" transform="translate(-1.29)"/><path class="cls-1" d="M199.31,223.4V192.35H215.9q6.43,0,9.5,2.28a7,7,0,0,1,3.06,5.84,7.09,7.09,0,0,1-1.31,4.19,8.71,8.71,0,0,1-3.79,2.9,15.58,15.58,0,0,1-6.13,1.07l.89-2.4a17.44,17.44,0,0,1,6.28,1,9,9,0,0,1,4.08,2.95,7.56,7.56,0,0,1,1.44,4.64,7.2,7.2,0,0,1-3.35,6.3q-3.34,2.27-9.78,2.26Zm10.29-7.32h6.3a4.49,4.49,0,0,0,2.6-.62,2.36,2.36,0,0,0,0-3.64,4.49,4.49,0,0,0-2.6-.62h-7v-6.92h5.59a4.45,4.45,0,0,0,2.6-.6,2.21,2.21,0,0,0,0-3.44,4.64,4.64,0,0,0-2.6-.57H209.6Z" transform="translate(-1.29)"/><path class="cls-1" d="M233.6,223.4V192.35h10.47V223.4Z" transform="translate(-1.29)"/><path class="cls-1" d="M249.13,223.4V192.35h14.5q7.15,0,10.87,3.15a10.6,10.6,0,0,1,3.73,8.56,10.48,10.48,0,0,1-6.63,10.16,18.77,18.77,0,0,1-7.52,1.37h-9.14l4.66-4.3V223.4Zm10.47-11-4.66-4.74h8.47a4.59,4.59,0,0,0,3.22-1,3.92,3.92,0,0,0,0-5.32,4.59,4.59,0,0,0-3.22-1h-8.47l4.66-4.74Zm8.11,11-7.63-11.31h11.1l7.71,11.31Z" transform="translate(-1.29)"/><path class="cls-1" d="M297,224.11q-7.14,0-11.14-3.86t-4-10.82V192.35h10.47v16.77q0,3.54,1.29,5a4.79,4.79,0,0,0,6.94,0q1.26-1.49,1.26-5V192.35h10.3v17.08q0,7-4,10.82T297,224.11Z" transform="translate(-1.29)"/><path class="cls-1" d="M35.08,241.23a6.14,6.14,0,0,1-2-.31,4,4,0,0,1-1.47-.82l.47-1a4.33,4.33,0,0,0,1.31.75,4.86,4.86,0,0,0,1.65.29,3.72,3.72,0,0,0,1.27-.18,1.56,1.56,0,0,0,.72-.49,1.2,1.2,0,0,0,.23-.71A1,1,0,0,0,37,238a2.27,2.27,0,0,0-.78-.46c-.32-.11-.68-.21-1.06-.3s-.77-.19-1.16-.3a5.35,5.35,0,0,1-1.06-.44,2.18,2.18,0,0,1-.78-.73,2.16,2.16,0,0,1-.29-1.17,2.37,2.37,0,0,1,.36-1.27,2.6,2.6,0,0,1,1.13-.94,4.71,4.71,0,0,1,1.94-.35,5.85,5.85,0,0,1,1.55.21,4,4,0,0,1,1.33.59l-.42,1a4.08,4.08,0,0,0-1.22-.56,4.93,4.93,0,0,0-1.24-.17,3.37,3.37,0,0,0-1.24.19,1.52,1.52,0,0,0-.71.51,1.26,1.26,0,0,0-.23.72,1,1,0,0,0,.3.76,2.31,2.31,0,0,0,.79.45q.48.16,1,.3c.39.09.77.19,1.16.3a4.8,4.8,0,0,1,1.06.43,2.25,2.25,0,0,1,.78.72,2.11,2.11,0,0,1,.29,1.15,2.29,2.29,0,0,1-.37,1.26,2.63,2.63,0,0,1-1.14.94A4.84,4.84,0,0,1,35.08,241.23Z" transform="translate(-1.29)"/><path class="cls-1" d="M44.47,241.23a4.94,4.94,0,0,1-1.9-.35,4.58,4.58,0,0,1-1.52-1,4.59,4.59,0,0,1,0-6.55,4.64,4.64,0,0,1,1.51-1,5.15,5.15,0,0,1,1.91-.35,5.29,5.29,0,0,1,1.89.34,4.53,4.53,0,0,1,1.51,1,4.47,4.47,0,0,1,1,1.46,5,5,0,0,1,0,3.66,4.43,4.43,0,0,1-1,1.45,4.53,4.53,0,0,1-1.51,1A5.08,5.08,0,0,1,44.47,241.23Zm0-1.14a3.46,3.46,0,0,0,1.38-.26,3.32,3.32,0,0,0,1.11-.72,3.54,3.54,0,0,0,.73-1.09,3.63,3.63,0,0,0,.26-1.37,3.59,3.59,0,0,0-.26-1.37,3.54,3.54,0,0,0-.73-1.09,3.2,3.2,0,0,0-1.11-.73,3.79,3.79,0,0,0-2.76,0,3.3,3.3,0,0,0-1.11.73,3.34,3.34,0,0,0-1,2.46,3.63,3.63,0,0,0,.26,1.37,3.56,3.56,0,0,0,.74,1.09,3.43,3.43,0,0,0,1.11.72A3.46,3.46,0,0,0,44.46,240.09Z" transform="translate(-1.29)"/><path class="cls-1" d="M51.18,241.13v-9h1.28V240h4.85v1.12Z" transform="translate(-1.29)"/><path class="cls-1" d="M62.31,241.23a3.76,3.76,0,0,1-2.78-1,4,4,0,0,1-1-3v-5.1H59.8v5.05a3.08,3.08,0,0,0,.66,2.19,2.87,2.87,0,0,0,3.73,0,3.08,3.08,0,0,0,.66-2.19v-5.05H66.1v5.1a4,4,0,0,1-1,3A3.76,3.76,0,0,1,62.31,241.23Z" transform="translate(-1.29)"/><path class="cls-1" d="M71.33,241.23a6.14,6.14,0,0,1-2-.31,4,4,0,0,1-1.47-.82l.48-1a4.16,4.16,0,0,0,1.3.75,4.86,4.86,0,0,0,1.65.29A3.72,3.72,0,0,0,72.6,240a1.56,1.56,0,0,0,.72-.49,1.2,1.2,0,0,0,.23-.71,1,1,0,0,0-.3-.74,2.27,2.27,0,0,0-.78-.46c-.32-.11-.68-.21-1.06-.3s-.77-.19-1.16-.3a5.35,5.35,0,0,1-1.06-.44,2.18,2.18,0,0,1-.78-.73,2.16,2.16,0,0,1-.29-1.17,2.37,2.37,0,0,1,.36-1.27,2.6,2.6,0,0,1,1.13-.94,4.71,4.71,0,0,1,1.94-.35,5.85,5.85,0,0,1,1.55.21,4,4,0,0,1,1.33.59l-.42,1a4.2,4.2,0,0,0-1.22-.56,4.93,4.93,0,0,0-1.24-.17,3.37,3.37,0,0,0-1.24.19,1.52,1.52,0,0,0-.71.51,1.26,1.26,0,0,0-.23.72,1,1,0,0,0,.3.76,2.41,2.41,0,0,0,.79.45q.48.16,1.05.3c.39.09.77.19,1.16.3a4.8,4.8,0,0,1,1.06.43,2.25,2.25,0,0,1,.78.72,2.11,2.11,0,0,1,.29,1.15,2.29,2.29,0,0,1-.37,1.26,2.63,2.63,0,0,1-1.14.94A4.84,4.84,0,0,1,71.33,241.23Z" transform="translate(-1.29)"/><path class="cls-1" d="M76.67,241.13v-9H78v9Z" transform="translate(-1.29)"/><path class="cls-1" d="M85.87,241.13v-7.85H82.79v-1.12h7.42v1.12H87.13v7.85Z" transform="translate(-1.29)"/><path class="cls-1" d="M91.6,241.13v-9h3.5a4.19,4.19,0,0,1,2.74.83,2.84,2.84,0,0,1,1,2.3,3,3,0,0,1-.45,1.67A2.88,2.88,0,0,1,97.11,238a4.91,4.91,0,0,1-2,.37H92.31l.57-.59v3.32Zm1.28-3.19-.57-.63h2.75a2.84,2.84,0,0,0,1.86-.53,2.05,2.05,0,0,0,0-3,2.85,2.85,0,0,0-1.86-.52H92.31l.57-.64Zm4.71,3.19-2.27-3.25h1.37l2.3,3.25Z" transform="translate(-1.29)"/><path class="cls-1" d="M99.55,241.13l4.06-9h1.27l4.07,9h-1.34L104,232.88h.51l-3.63,8.25Zm1.73-2.24.35-1h5l.38,1Z" transform="translate(-1.29)"/><path class="cls-1" d="M110.29,241.13v-9h1l5.93,7.37h-.55v-7.37H118v9h-1L111,233.76h.56v7.37Z" transform="translate(-1.29)"/><path class="cls-1" d="M123.29,241.23a6.14,6.14,0,0,1-2-.31,4,4,0,0,1-1.47-.82l.48-1a4.16,4.16,0,0,0,1.3.75,4.86,4.86,0,0,0,1.65.29,3.68,3.68,0,0,0,1.27-.18,1.46,1.46,0,0,0,.72-.49,1.2,1.2,0,0,0,.23-.71,1,1,0,0,0-.3-.74,2.27,2.27,0,0,0-.78-.46,10.55,10.55,0,0,0-1.06-.3c-.38-.08-.77-.19-1.16-.3a5.35,5.35,0,0,1-1.06-.44,2,2,0,0,1-1.07-1.9,2.3,2.3,0,0,1,.37-1.27,2.52,2.52,0,0,1,1.12-.94,4.74,4.74,0,0,1,1.94-.35,5.85,5.85,0,0,1,1.55.21,4,4,0,0,1,1.33.59l-.42,1a4.08,4.08,0,0,0-1.22-.56,4.93,4.93,0,0,0-1.24-.17,3.37,3.37,0,0,0-1.24.19,1.57,1.57,0,0,0-.71.51,1.26,1.26,0,0,0-.23.72,1,1,0,0,0,.31.76,2.26,2.26,0,0,0,.78.45q.48.16,1,.3c.39.09.77.19,1.16.3a4.88,4.88,0,0,1,1.07.43,2.22,2.22,0,0,1,.77.72,2,2,0,0,1,.29,1.15,2.29,2.29,0,0,1-.37,1.26,2.58,2.58,0,0,1-1.14.94A4.84,4.84,0,0,1,123.29,241.23Z" transform="translate(-1.29)"/><path class="cls-1" d="M128.63,241.13v-9h3.5a4.87,4.87,0,0,1,2,.38,2.82,2.82,0,0,1,1.28,1.07,3.06,3.06,0,0,1,.45,1.68,3,3,0,0,1-.45,1.67,2.88,2.88,0,0,1-1.28,1.07,4.71,4.71,0,0,1-2,.38h-2.79l.57-.6v3.32Zm1.28-3.19-.57-.64h2.75a2.84,2.84,0,0,0,1.86-.53,1.79,1.79,0,0,0,.64-1.48,1.81,1.81,0,0,0-.64-1.49,2.85,2.85,0,0,0-1.86-.52h-2.75l.57-.64Z" transform="translate(-1.29)"/><path class="cls-1" d="M141.92,241.23a5,5,0,0,1-1.9-.35,4.53,4.53,0,0,1-1.51-1,4.59,4.59,0,0,1,0-6.55,4.53,4.53,0,0,1,1.51-1,5.1,5.1,0,0,1,1.9-.35,5.3,5.3,0,0,1,1.9.34,4.64,4.64,0,0,1,1.51,1,4.29,4.29,0,0,1,1,1.46,4.83,4.83,0,0,1,0,3.66,4.25,4.25,0,0,1-1,1.45,4.64,4.64,0,0,1-1.51,1A5.1,5.1,0,0,1,141.92,241.23Zm0-1.14a3.48,3.48,0,0,0,1.39-.26,3.28,3.28,0,0,0,1.1-.72,3.37,3.37,0,0,0,.73-1.09,3.45,3.45,0,0,0,.27-1.37,3.42,3.42,0,0,0-.27-1.37,3.37,3.37,0,0,0-.73-1.09,3.16,3.16,0,0,0-1.1-.73,3.79,3.79,0,0,0-2.76,0,3.11,3.11,0,0,0-1.11.73,3.4,3.4,0,0,0-.74,1.09,3.59,3.59,0,0,0-.26,1.37,3.63,3.63,0,0,0,.26,1.37,3.4,3.4,0,0,0,.74,1.09,3.23,3.23,0,0,0,1.11.72A3.45,3.45,0,0,0,141.91,240.09Z" transform="translate(-1.29)"/><path class="cls-1" d="M148.63,241.13v-9h3.5a4.17,4.17,0,0,1,2.74.83,2.81,2.81,0,0,1,1,2.3,3,3,0,0,1-.45,1.67,2.83,2.83,0,0,1-1.28,1.07,4.84,4.84,0,0,1-2,.37h-2.79l.58-.59v3.32Zm1.29-3.19-.58-.63h2.75a2.89,2.89,0,0,0,1.87-.53,2.08,2.08,0,0,0,0-3,2.89,2.89,0,0,0-1.87-.52h-2.75l.58-.64Zm4.71,3.19-2.28-3.25h1.37l2.3,3.25Z" transform="translate(-1.29)"/><path class="cls-1" d="M159.59,241.13v-7.85h-3.07v-1.12h7.42v1.12h-3.08v7.85Z" transform="translate(-1.29)"/><path class="cls-1" d="M163.53,241.13l4.05-9h1.27l4.07,9h-1.34L168,232.88h.51l-3.63,8.25Zm1.72-2.24.35-1h5.05l.37,1Z" transform="translate(-1.29)"/><path class="cls-1" d="M176.87,241.23a6.09,6.09,0,0,1-2-.31,4,4,0,0,1-1.47-.82l.47-1a4.21,4.21,0,0,0,1.31.75,4.86,4.86,0,0,0,1.65.29,3.76,3.76,0,0,0,1.27-.18,1.48,1.48,0,0,0,.71-.49,1.14,1.14,0,0,0,.23-.71,1,1,0,0,0-.3-.74,2.27,2.27,0,0,0-.78-.46q-.48-.17-1.05-.3c-.39-.08-.78-.19-1.16-.3a5.44,5.44,0,0,1-1.07-.44,2.15,2.15,0,0,1-.77-.73,2.07,2.07,0,0,1-.29-1.17,2.37,2.37,0,0,1,.36-1.27,2.55,2.55,0,0,1,1.13-.94,4.68,4.68,0,0,1,1.94-.35,5.9,5.9,0,0,1,1.55.21,4.14,4.14,0,0,1,1.33.59l-.43,1a4.15,4.15,0,0,0-1.21-.56,5,5,0,0,0-1.24-.17,3.42,3.42,0,0,0-1.25.19,1.57,1.57,0,0,0-.71.51,1.25,1.25,0,0,0-.22.72,1,1,0,0,0,.3.76,2.26,2.26,0,0,0,.78.45,10.55,10.55,0,0,0,1.06.3l1.16.3a4.8,4.8,0,0,1,1.06.43,2.13,2.13,0,0,1,.77.72,2,2,0,0,1,.3,1.15,2.37,2.37,0,0,1-.37,1.26,2.61,2.61,0,0,1-1.15.94A4.82,4.82,0,0,1,176.87,241.23Z" transform="translate(-1.29)"/><path class="cls-1" d="M182.21,241.13v-9h1.28v9Z" transform="translate(-1.29)"/><path class="cls-1" d="M189.62,241.13v-9h4a4,4,0,0,1,2.39.62,2,2,0,0,1,.83,1.7,2.17,2.17,0,0,1-.33,1.23,2.19,2.19,0,0,1-.88.77,2.63,2.63,0,0,1-1.19.27l.23-.39a3.2,3.2,0,0,1,1.36.27,2.26,2.26,0,0,1,.94.79,2.3,2.3,0,0,1,.34,1.29,2.08,2.08,0,0,1-.86,1.78,4.27,4.27,0,0,1-2.57.64Zm1.28-1h2.95a3,3,0,0,0,1.62-.36,1.41,1.41,0,0,0,0-2.26,3,3,0,0,0-1.62-.36h-3.06v-1h2.74a2.7,2.7,0,0,0,1.51-.36,1.34,1.34,0,0,0,0-2.15,2.7,2.7,0,0,0-1.51-.36H190.9Z" transform="translate(-1.29)"/><path class="cls-1" d="M197.83,241.13l4.06-9h1.27l4.07,9h-1.35l-3.62-8.25h.51l-3.62,8.25Zm1.73-2.24.34-1h5l.37,1Z" transform="translate(-1.29)"/><path class="cls-1" d="M208.56,241.13v-9h1.28v9Zm1.15-4V236h5.39v1.11Zm5.28,4v-9h1.28v9Z" transform="translate(-1.29)"/><path class="cls-1" d="M217.6,241.13l4.06-9h1.27l4.07,9h-1.35L222,232.88h.51l-3.62,8.25Zm1.73-2.24.34-1h5.05l.37,1Z" transform="translate(-1.29)"/><path class="cls-1" d="M228.33,241.13v-9h3.5a4.19,4.19,0,0,1,2.74.83,2.84,2.84,0,0,1,1,2.3,3,3,0,0,1-.45,1.67,2.88,2.88,0,0,1-1.28,1.07,4.91,4.91,0,0,1-2,.37H229l.57-.59v3.32Zm1.28-3.19-.57-.63h2.75a2.84,2.84,0,0,0,1.86-.53,2.05,2.05,0,0,0,0-3,2.85,2.85,0,0,0-1.86-.52H229l.57-.64Zm4.71,3.19L232,237.88h1.37l2.31,3.25Z" transform="translate(-1.29)"/><path class="cls-1" d="M237.64,241.13v-9h1.28v9Z" transform="translate(-1.29)"/><path class="cls-1" d="M243.7,241.13l4.06-9H249l4.08,9h-1.35l-3.62-8.25h.51L245,241.13Zm1.73-2.24.34-1h5l.37,1Z" transform="translate(-1.29)"/><path class="cls-1" d="M254.43,241.13v-9h1l5.93,7.37h-.55v-7.37h1.28v9h-1.05l-5.93-7.37h.55v7.37Z" transform="translate(-1.29)"/><path class="cls-1" d="M264.83,241.13v-9h3.77a5.39,5.39,0,0,1,2.53.57,4.1,4.1,0,0,1,1.7,1.57,4.81,4.81,0,0,1,0,4.69,4.1,4.1,0,0,1-1.7,1.57,5.39,5.39,0,0,1-2.53.57Zm1.28-1.12h2.42a4.12,4.12,0,0,0,1.92-.42,3,3,0,0,0,1.26-1.18,3.41,3.41,0,0,0,.45-1.76,3.38,3.38,0,0,0-.45-1.77,3,3,0,0,0-1.26-1.18,4.12,4.12,0,0,0-1.92-.42h-2.42Z" transform="translate(-1.29)"/><path class="cls-1" d="M273.92,241.13l4.05-9h1.27l4.07,9H282l-3.62-8.25h.51l-3.63,8.25Zm1.72-2.24.35-1H281l.37,1Z" transform="translate(-1.29)"/><path class="cls-1" d="M318.15,197v-4.05h-1.59v-.57h3.82v.57H318.8V197Z" transform="translate(-1.29)"/><path class="cls-1" d="M321.1,197v-4.62h.54l2.07,3.49h-.29l2.05-3.49H326V197h-.64v-3.62h.15l-1.82,3.06h-.3l-1.84-3.06h.17V197Z" transform="translate(-1.29)"/><g id="LOGO_PURE" data-name="LOGO PURE"><g id="LOgo"><path class="cls-1" d="M191.76,21.84a69.89,69.89,0,0,0-81.39,59.34,83.9,83.9,0,0,0-12-6.29c-2-.86-4.09-1.63-6.15-2.32l0-.19a74.23,74.23,0,0,1,99.54-50.54Z" transform="translate(-1.29)"/><path class="cls-1" d="M231,43.63a69.86,69.86,0,0,0-7.88-7.6c-.45-.38-.91-.74-1.36-1.11l-.31-.3A79.27,79.27,0,0,0,88.53,71.45a83.32,83.32,0,0,0-22.68-3.11h-.24A90.67,90.67,0,0,1,231,43.63Z" transform="translate(-1.29)"/><path class="cls-1" d="M200.51,124.26l-1.56,6a4,4,0,0,1-.7,1.44q-4.19-.12-8.31-.62L123.72,91.67A82.7,82.7,0,0,0,115,84.35a4.12,4.12,0,0,1,1.62-3.52l8.16-6.22a4.13,4.13,0,0,1,4.79-.17l69.17,45.31A4.13,4.13,0,0,1,200.51,124.26Z" transform="translate(-1.29)"/><path class="cls-1" d="M191,111.21,145,81.35a2.58,2.58,0,0,1-.08-4.27l5.22-3.66a2.55,2.55,0,0,1,3,0L195,103.24a2.57,2.57,0,0,1,1,2.84l-1.12,3.71A2.57,2.57,0,0,1,191,111.21Z" transform="translate(-1.29)"/><path class="cls-1" d="M238.29,131.11a96.06,96.06,0,0,1-33.81,34.48,90.68,90.68,0,0,1-139.27-54.3q-1.11-2-2.34-3.81a62.11,62.11,0,0,0-33.48-25,78,78,0,0,1,31-8.79c.72-.06,1.45-.09,2.18-.12s1.26,0,1.9-.06h1.39a78.16,78.16,0,0,1,21.6,3h0a78.2,78.2,0,0,1,33.74,19.9c.92.92,1.82,1.87,2.7,2.83,1.3,1.68,2.67,3.32,4.08,4.9a99.55,99.55,0,0,0,7.74,7.77,97.58,97.58,0,0,0,65.38,25h.17a18.25,18.25,0,0,0,18.15-18.84c0-.38,0-.76,0-1.15-1.24-26.21-16.1-39.31-29.18-39.31a19.73,19.73,0,0,0-2.44.15,17.07,17.07,0,0,1-2.2.15c-11.69,0-13.59-13.17,1.32-14.62a23.46,23.46,0,0,1,2.36-.12c12.28,0,22.75,9,26.63,9a1.41,1.41,0,0,0,1.5-1.23c2.55-10.63-8.11-19.26-17.73-19.26a14.4,14.4,0,0,0-3.88.51,36.41,36.41,0,0,1-9.68,1.46c-14,0-17.11-11.1-12.58-16,4.28-4.69,10.28-6.49,16.18-6.49a30.4,30.4,0,0,1,14.64,3.74C220.28,44.1,228.85,58.81,228.45,73c-.31,10.88,3.23,18.73,9.11,18.73a7.85,7.85,0,0,0,1.42-.14c2.94-.6,7.43-6.17-1.64-17.17-5.7-6.9-6.85-6.92-7.46-9-.78-2.61.27-4,2.25-4,2.7,0,7.13,2.62,11,8.41C251.27,81.89,250,112.79,238.29,131.11Z" transform="translate(-1.29)"/><path class="cls-1" d="M195.54,94.65s-10.49.75-8.19-7.26,15.52-5.24,22.14,5.86c3.92,6.58,7.78,18.39,1.33,18.38-3.85,0-5-6.47-5-6.47s-.61-1.81-2.09-.28-5.23.39-5.21-2a2.9,2.9,0,0,1,4.61-2C205.06,102.25,203.89,94.87,195.54,94.65Z" transform="translate(-1.29)"/></g></g></g></g></g></svg>